<?xml version="1.0" standalone="no"?>
<!DOCTYPE svg PUBLIC "-//W3C//DTD SVG 20010904//EN"
 "http://www.w3.org/TR/2001/REC-SVG-20010904/DTD/svg10.dtd">
<svg version="1.0" xmlns="http://www.w3.org/2000/svg"
 width="100.000000pt" height="100.000000pt" viewBox="0 0 100.000000 100.000000"
 preserveAspectRatio="xMidYMid meet">

<g transform="translate(0.000000,100.000000) scale(0.100000,-0.100000)"
fill="#000000" stroke="none">
<path d="M469 964 c-36 -55 -71 -77 -132 -82 -63 -5 -94 8 -103 43 -7 26 -18
32 -29 14 -11 -17 15 -66 41 -78 14 -6 40 -11 59 -11 l35 0 0 -90 c0 -53 4
-90 10 -90 6 0 10 36 10 89 l0 89 35 12 c20 6 52 27 71 46 l36 34 19 -24 c11
-13 39 -34 64 -46 l44 -21 3 -87 c2 -69 6 -87 18 -87 12 0 16 18 18 88 l3 87
35 0 c58 0 123 82 78 97 -7 2 -14 -7 -18 -21 -9 -36 -40 -49 -103 -44 -60 5
-96 26 -131 79 -13 19 -27 35 -31 37 -4 1 -18 -14 -32 -34z"/>
<path d="M400 820 c0 -5 6 -13 14 -17 10 -5 16 -29 18 -68 2 -45 7 -60 18 -60
11 0 16 15 18 63 3 61 3 62 32 62 29 0 29 -1 32 -62 2 -48 7 -63 18 -63 11 0
16 15 18 60 2 39 8 63 18 68 34 19 8 27 -86 27 -57 0 -100 -4 -100 -10z"/>
<path d="M136 691 c-10 -15 11 -58 36 -75 12 -9 39 -16 60 -16 l37 0 3 -82 c2
-47 7 -83 13 -83 6 0 11 36 13 83 l3 82 199 0 199 0 3 -82 c2 -47 7 -83 13
-83 6 0 11 36 13 83 l3 82 39 0 c45 0 89 32 92 69 4 34 -20 38 -33 5 -5 -16
-16 -32 -22 -36 -16 -10 -598 -10 -614 0 -6 4 -16 20 -22 35 -11 27 -25 35
-35 18z"/>
<path d="M76 463 c-13 -14 -5 -51 17 -71 16 -15 36 -22 65 -22 l42 0 0 -150
c0 -125 2 -150 15 -150 12 0 15 25 17 148 l3 147 265 0 265 0 3 -147 c2 -123
5 -148 17 -148 13 0 15 25 15 150 l0 150 43 0 c49 0 87 30 87 68 0 33 -19 36
-31 5 -5 -15 -16 -31 -22 -35 -7 -4 -177 -8 -379 -8 -320 0 -369 2 -382 16 -9
8 -16 22 -16 29 0 16 -14 27 -24 18z"/>
<path d="M335 319 c-4 -6 2 -13 14 -16 20 -5 21 -12 21 -104 l0 -99 -50 0
c-38 0 -50 -4 -50 -15 0 -13 32 -15 230 -15 198 0 230 2 230 15 0 11 -12 15
-50 15 l-50 0 0 99 c0 92 1 99 21 104 12 3 18 10 14 16 -9 15 -321 15 -330 0z
m155 -68 c0 -30 -5 -51 -12 -54 -10 -3 -10 -9 0 -26 6 -11 12 -32 12 -46 0
-23 -4 -25 -45 -25 l-45 0 0 100 0 100 45 0 45 0 0 -49z m110 -51 l0 -100 -45
0 c-43 0 -45 1 -45 28 0 15 6 34 12 40 10 10 10 17 0 32 -6 11 -12 38 -12 60
l0 40 45 0 45 0 0 -100z"/>
<path d="M3 18 c3 -10 111 -13 497 -13 386 0 494 3 497 13 4 9 -100 12 -497
12 -397 0 -501 -3 -497 -12z"/>
</g>
</svg>
