<?xml version="1.0" standalone="no"?>
<!DOCTYPE svg PUBLIC "-//W3C//DTD SVG 20010904//EN"
 "http://www.w3.org/TR/2001/REC-SVG-20010904/DTD/svg10.dtd">
<svg version="1.0" xmlns="http://www.w3.org/2000/svg"
 width="100.000000pt" height="100.000000pt" viewBox="0 0 100.000000 100.000000"
 preserveAspectRatio="xMidYMid meet">
<metadata>
Created by potrace 1.15, written by Peter Selinger 2001-2017
</metadata>
<g transform="translate(0.000000,100.000000) scale(0.100000,-0.100000)"
fill="#	" stroke="none">
<path d="M480 979 c0 -32 -18 -59 -85 -129 -68 -71 -101 -127 -111 -188 -5
-32 -10 -39 -25 -35 -14 4 -19 0 -19 -14 0 -11 -13 -32 -30 -48 -16 -16 -30
-37 -30 -46 0 -10 -5 -21 -10 -24 -7 -4 -8 -24 -4 -51 6 -40 4 -44 -15 -44
-17 0 -21 6 -21 35 0 33 -2 35 -34 35 l-33 0 -7 -61 c-3 -34 -6 -131 -6 -215
l0 -154 -25 0 c-18 0 -25 -5 -25 -20 0 -19 7 -20 215 -20 l215 0 0 118 c1 124
4 135 52 166 25 16 28 16 53 0 40 -26 45 -44 45 -168 l0 -116 210 0 c203 0
210 1 210 20 0 13 -7 20 -20 20 -19 0 -20 7 -21 163 0 89 -4 185 -7 212 -7 49
-8 50 -44 53 -37 3 -38 3 -38 -32 0 -30 -4 -36 -21 -36 -19 0 -21 4 -15 40 7
47 -14 108 -50 139 -13 11 -24 28 -24 36 0 18 -26 20 -33 3 -3 -7 -6 5 -6 28
-1 59 -42 131 -121 214 -47 50 -72 84 -76 107 -7 38 -44 49 -44 12z m97 -166
c21 -17 52 -57 67 -87 28 -56 31 -88 14 -191 -2 -14 3 -21 20 -23 12 -2 22 1
22 7 0 6 10 16 22 22 34 18 58 -19 58 -87 l0 -54 -39 0 c-36 0 -40 3 -43 28
l-3 27 -187 3 -188 2 0 -30 c0 -29 -1 -30 -50 -30 l-51 0 2 55 c2 42 7 59 25
76 l22 21 21 -21 c12 -12 31 -21 42 -21 17 0 20 4 15 23 -33 112 -12 180 91
289 l68 73 16 -26 c9 -14 34 -39 56 -56z m73 -588 c0 -117 -4 -185 -10 -185
-6 0 -10 40 -10 100 0 119 -10 146 -75 190 l-46 31 -44 -26 c-68 -40 -79 -63
-86 -185 -5 -92 -6 -83 -7 78 l-2 182 140 0 140 0 0 -185z m-330 -25 l0 -150
-115 0 -115 0 0 150 0 150 115 0 115 0 0 -150z m590 -5 l0 -155 -105 0 -105 0
0 155 0 155 105 0 105 0 0 -155z"/>
</g>
</svg>
