<?xml version="1.0" standalone="no"?>
<!DOCTYPE svg PUBLIC "-//W3C//DTD SVG 20010904//EN"
 "http://www.w3.org/TR/2001/REC-SVG-20010904/DTD/svg10.dtd">
<svg version="1.0" xmlns="http://www.w3.org/2000/svg"
 width="98.000000pt" height="98.000000pt" viewBox="0 0 98.000000 98.000000"
 preserveAspectRatio="xMidYMid meet">
<metadata>
Created by potrace 1.15, written by Peter Selinger 2001-2017
</metadata>
<g transform="translate(0.000000,98.000000) scale(0.100000,-0.100000)"
fill="#000000" stroke="none">
<path d="M472 950 c4 -26 1 -30 -19 -30 -19 0 -23 -5 -23 -29 0 -17 -4 -33
-10 -36 -24 -15 -9 -35 28 -36 20 -1 29 -3 19 -6 -22 -6 -85 -130 -93 -185 -6
-36 -18 -49 -26 -28 -2 5 -9 6 -17 1 -11 -7 -10 -14 8 -39 25 -36 26 -42 6
-42 -11 0 -15 -12 -15 -45 0 -41 2 -45 25 -45 24 0 25 -3 25 -54 l0 -53 -50
-7 c-28 -4 -57 -9 -65 -12 -12 -5 -15 4 -15 46 0 73 -24 62 -28 -12 -2 -31 -9
-61 -16 -67 -11 -9 -14 4 -18 71 -3 62 -11 98 -31 142 -15 32 -27 71 -27 87 0
19 -5 29 -15 29 -9 0 -15 -9 -15 -21 0 -12 -14 -51 -32 -88 -32 -65 -32 -68
-38 -248 -3 -126 -9 -186 -17 -195 -7 -6 -13 -20 -13 -30 0 -17 25 -18 490
-18 465 0 490 1 490 18 0 10 -6 24 -12 30 -9 9 -15 69 -18 195 -6 180 -6 183
-38 248 -18 37 -32 76 -32 88 0 12 -6 21 -15 21 -10 0 -15 -10 -15 -29 0 -16
-12 -55 -27 -87 -20 -44 -28 -80 -31 -142 -4 -67 -7 -80 -18 -71 -7 6 -14 36
-16 67 -4 74 -28 85 -28 12 0 -42 -3 -51 -15 -46 -8 3 -37 8 -65 12 l-50 7 0
53 c0 51 1 54 25 54 23 0 25 4 25 45 0 33 -4 45 -15 45 -20 0 -19 6 6 42 18
25 19 32 8 39 -8 5 -15 4 -17 -1 -8 -21 -20 -8 -26 28 -8 55 -71 179 -93 185
-10 3 -1 5 20 6 36 1 51 21 27 36 -5 3 -10 19 -10 36 0 24 -4 29 -23 29 -20 0
-23 4 -19 30 4 26 1 30 -18 30 -19 0 -22 -4 -18 -30z m-337 -492 c10 -24 20
-76 23 -115 4 -63 2 -73 -12 -73 -11 0 -16 9 -16 30 0 20 -5 30 -15 30 -10 0
-15 -10 -15 -30 0 -24 -4 -30 -21 -30 -21 0 -22 3 -16 73 5 70 31 157 47 157
4 0 16 -19 25 -42z m760 0 c9 -24 19 -76 22 -115 6 -70 5 -73 -16 -73 -17 0
-21 6 -21 30 0 20 -5 30 -15 30 -10 0 -15 -10 -15 -30 0 -21 -5 -30 -16 -30
-14 0 -16 10 -12 73 5 69 32 157 48 157 4 0 15 -19 25 -42z m-325 -83 c0 -52
-1 -55 -25 -55 -14 0 -28 0 -32 0 -5 0 -8 6 -8 13 0 6 -7 12 -15 12 -8 0 -15
-6 -15 -12 0 -7 -3 -13 -7 -13 -5 0 -19 0 -33 0 -24 0 -25 3 -25 55 l0 55 80
0 80 0 0 -55z m137 -100 c25 -6 93 -62 93 -76 0 -17 -27 -9 -50 16 -35 37 -50
32 -50 -15 0 -36 -2 -40 -25 -40 -18 0 -31 9 -43 30 -20 34 -42 39 -42 9 0
-26 -18 -59 -32 -59 -20 0 -48 33 -48 57 0 16 -6 23 -20 23 -14 0 -20 -7 -20
-22 0 -24 -27 -58 -46 -58 -16 0 -34 31 -34 59 0 30 -22 25 -42 -9 -12 -21
-25 -30 -43 -30 -23 0 -25 4 -25 40 0 47 -15 52 -50 15 -23 -25 -50 -33 -50
-16 0 5 16 23 35 40 33 29 49 36 99 43 33 5 370 -1 393 -7z m-452 -117 c12
-29 75 -37 94 -14 12 14 16 13 33 -9 24 -30 61 -32 88 -5 l20 20 20 -20 c27
-27 64 -25 88 5 17 22 21 23 33 9 18 -22 79 -15 93 11 6 11 12 22 13 24 2 2 9
-2 17 -8 8 -7 28 -11 45 -9 26 2 37 -6 86 -62 l56 -65 -225 -3 c-124 -1 -328
-1 -452 0 l-225 3 56 65 c50 58 59 64 89 62 19 -2 37 1 41 7 10 17 19 13 30
-11z"/>
</g>
</svg>
