<?xml version="1.0" standalone="no"?>
<!DOCTYPE svg PUBLIC "-//W3C//DTD SVG 20010904//EN"
 "http://www.w3.org/TR/2001/REC-SVG-20010904/DTD/svg10.dtd">
<svg version="1.0" xmlns="http://www.w3.org/2000/svg"
 width="98.000000pt" height="98.000000pt" viewBox="0 0 98.000000 98.000000"
 preserveAspectRatio="xMidYMid meet">
<metadata>
Created by potrace 1.15, written by Peter Selinger 2001-2017
</metadata>
<g transform="translate(0.000000,98.000000) scale(0.100000,-0.100000)"
fill="#000000" stroke="none">
<path d="M416 940 l-26 -40 -94 0 -93 0 -7 -92 c-12 -170 -14 -161 59 -234 40
-40 75 -67 95 -70 16 -4 30 -10 30 -14 0 -4 12 -11 28 -14 90 -22 194 -62 212
-81 l22 -23 -54 -39 c-64 -48 -241 -133 -274 -133 -2 0 -4 26 -4 58 0 32 -5
63 -12 70 -8 8 -56 12 -149 12 l-136 0 -6 -67 c-4 -38 -7 -97 -7 -133 0 -58 3
-70 31 -103 20 -24 39 -37 55 -37 34 0 30 22 -12 64 -34 34 -36 39 -30 83 3
25 6 63 6 84 l0 39 99 0 98 0 7 -46 c3 -26 6 -63 6 -83 0 -49 6 -57 109 -123
84 -54 309 24 479 167 138 117 134 109 126 281 -6 119 -10 146 -23 152 -9 4
-59 7 -111 6 -130 -2 -130 -2 -130 -19 0 -8 -2 -15 -4 -15 -18 0 -215 86 -231
101 -19 19 -19 19 0 38 91 88 147 201 100 201 -11 0 -14 7 -9 25 5 20 2 25
-12 25 -29 0 -39 -11 -67 -65 -15 -27 -38 -58 -52 -68 -39 -28 -31 1 15 52 46
51 52 81 16 81 -16 0 -31 -12 -50 -40z m-73 -110 c-28 -12 -30 -40 -3 -47 11
-3 20 -14 20 -24 0 -43 83 -122 150 -144 99 -32 200 -85 200 -106 0 -21 -17
-17 -66 16 -17 12 -90 43 -162 69 -113 42 -139 56 -182 97 -49 47 -66 89 -35
89 22 0 19 47 -2 53 -10 3 9 5 42 5 45 1 54 -1 38 -8z m555 -280 c12 0 22 -6
22 -14 0 -9 -8 -12 -25 -8 -23 4 -25 1 -25 -32 0 -29 4 -36 20 -36 10 0 24 8
29 18 8 14 10 14 11 2 0 -36 -189 -190 -300 -243 -54 -26 -198 -68 -229 -66
-14 0 -14 1 -1 6 102 37 229 115 309 190 l51 48 2 72 2 72 56 -4 c30 -2 65 -4
78 -5z m42 -201 c0 -8 -48 -57 -107 -108 -119 -102 -223 -160 -334 -187 l-67
-16 -45 26 c-25 15 -51 33 -57 41 -11 13 -7 15 23 15 87 0 234 39 322 86 76
40 89 49 169 117 79 67 95 71 96 26z"/>
</g>
</svg>
